<svg xmlns="http://www.w3.org/2000/svg" width="960" height="360">
<rect width="100%" height="100%" fill="white"/>
<text x="48" y="28" font-size="18" font-family="sans-serif">
Average Estimated Savings By Algorithm
</text>
<rect x="56.0" y="72.0" width="107.4" height="240.0" fill="#3267d6"/>
<text x="56.0" y="334" font-size="11" font-family="sans-serif" transform="rotate(30 56.0,334)">
betweenness
</text>
<text x="56.0" y="66.0" font-size="12" font-family="sans-serif">
53.4%
</text>
<rect x="179.4" y="143.5" width="107.4" height="168.5" fill="#3267d6"/>
<text x="179.4" y="334" font-size="11" font-family="sans-serif" transform="rotate(30 179.4,334)">
celf
</text>
<text x="179.4" y="137.5" font-size="12" font-family="sans-serif">
37.5%
</text>
<rect x="302.9" y="118.3" width="107.4" height="193.7" fill="#3267d6"/>
<text x="302.9" y="334" font-size="11" font-family="sans-serif" transform="rotate(30 302.9,334)">
cost-aware-greedy
</text>
<text x="302.9" y="112.3" font-size="12" font-family="sans-serif">
43.1%
</text>
<rect x="426.3" y="103.7" width="107.4" height="208.3" fill="#3267d6"/>
<text x="426.3" y="334" font-size="11" font-family="sans-serif" transform="rotate(30 426.3,334)">
degree
</text>
<text x="426.3" y="97.7" font-size="12" font-family="sans-serif">
46.4%
</text>
<rect x="549.7" y="148.5" width="107.4" height="163.5" fill="#3267d6"/>
<text x="549.7" y="334" font-size="11" font-family="sans-serif" transform="rotate(30 549.7,334)">
greedy
</text>
<text x="549.7" y="142.5" font-size="12" font-family="sans-serif">
36.4%
</text>
<rect x="673.1" y="125.5" width="107.4" height="186.5" fill="#3267d6"/>
<text x="673.1" y="334" font-size="11" font-family="sans-serif" transform="rotate(30 673.1,334)">
pagerank
</text>
<text x="673.1" y="119.5" font-size="12" font-family="sans-serif">
41.5%
</text>
<rect x="796.6" y="114.9" width="107.4" height="197.1" fill="#3267d6"/>
<text x="796.6" y="334" font-size="11" font-family="sans-serif" transform="rotate(30 796.6,334)">
random
</text>
<text x="796.6" y="108.9" font-size="12" font-family="sans-serif">
43.9%
</text>
</svg>
